# xmcd CD database file
# Copyright (C) 1993-1998 Ti Kan
#
# Track frame offsets:
#	150
#	29355
#	49570
#	60788
#	84305
#	119970
#	140788
#	157688
#
# Disc length: 2388 seconds
#
# Revision: 1
# Processed by: cddbd v1.4b41PL1 Copyright (c) Steve Scherf et al.
# Submitted via: CDValet v3.31 - Copyright (c) 1997 Greg Leichner
#
DISCID=60095208
DTITLE=Plas Johnson - The Blues
DYEAR=1900
DGENRE=
TTITLE0=Our Day Will Come
TTITLE1=Georgia On My Mind
TTITLE2=Bucket O' Blues
TTITLE3=Please Send Me Someone To Love
TTITLE4=Parking Lot Blues
TTITLE5=Don't You Know Little Girl
TTITLE6=Time After Time
TTITLE7=Once More For Johnny
EXTD=1976 Concord Jazz, Inc.
EXTT0=
EXTT1=
EXTT2=
EXTT3=
EXTT4=
EXTT5=
EXTT6=
EXTT7=
PLAYORDER=
